HIERARCHY
ROOT SimulationBone
{
	OFFSET 0.000000 0.000000 0.000000
	CHANNELS 6 Xposition Yposition Zposition Zrotation Yrotation Xrotation 
	JOINT Hips
	{
		OFFSET 0.000000 0.000000 0.000000
		CHANNELS 6 Xposition Yposition Zposition Zrotation Yrotation Xrotation 
		JOINT LeftUpLeg
		{
			OFFSET 0.103456 1.857826 10.548504
			CHANNELS 3 Zrotation Yrotation Xrotation
			JOINT LeftLeg
			{
				OFFSET 43.499996 -0.000038 0.000006
				CHANNELS 3 Zrotation Yrotation Xrotation
				JOINT LeftFoot
				{
					OFFSET 42.372192 0.000011 -0.000004
					CHANNELS 3 Zrotation Yrotation Xrotation
					JOINT LeftToe
					{
						OFFSET 17.300018 0.000006 0.000004
						CHANNELS 3 Zrotation Yrotation Xrotation
						End Site
						{
							OFFSET 0.000000 0.000000 0.000000
						}
					}
				}
			}
		}
		JOINT RightUpLeg
		{
			OFFSET 0.103455 1.857819 -10.548502
			CHANNELS 3 Zrotation Yrotation Xrotation
			JOINT RightLeg
			{
				OFFSET 43.500038 -0.000031 0.000011
				CHANNELS 3 Zrotation Yrotation Xrotation
				JOINT RightFoot
				{
					OFFSET 42.372261 -0.000008 0.000014
					CHANNELS 3 Zrotation Yrotation Xrotation
					JOINT RightToe
					{
						OFFSET 17.299999 -0.000004 0.000004
						CHANNELS 3 Zrotation Yrotation Xrotation
						End Site
						{
							OFFSET 0.000000 0.000000 0.000000
						}
					}
				}
			}
		}
		JOINT Spine
		{
			OFFSET 6.901965 -2.603737 -0.000000
			CHANNELS 3 Zrotation Yrotation Xrotation
			JOINT Spine1
			{
				OFFSET 12.588105 0.000013 0.000001
				CHANNELS 3 Zrotation Yrotation Xrotation
				JOINT Spine2
				{
					OFFSET 12.343203 0.000010 -0.000000
					CHANNELS 3 Zrotation Yrotation Xrotation
					JOINT Neck
					{
						OFFSET 25.832893 -0.000038 0.000001
						CHANNELS 3 Zrotation Yrotation Xrotation
						JOINT Head
						{
							OFFSET 11.766606 0.000028 0.000001
							CHANNELS 3 Zrotation Yrotation Xrotation
							End Site
							{
								OFFSET 0.000000 0.000000 0.000000
							}
						}
					}
					JOINT LeftShoulder
					{
						OFFSET 19.745897 -1.480375 6.000107
						CHANNELS 3 Zrotation Yrotation Xrotation
						JOINT LeftArm
						{
							OFFSET 11.284126 -0.000009 -0.000017
							CHANNELS 3 Zrotation Yrotation Xrotation
							JOINT LeftForeArm
							{
								OFFSET 33.000046 0.000006 0.000030
								CHANNELS 3 Zrotation Yrotation Xrotation
								JOINT LeftHand
								{
									OFFSET 25.200006 0.000034 0.000015
									CHANNELS 3 Zrotation Yrotation Xrotation
									End Site
									{
										OFFSET 0.000000 0.000000 0.000000
									}
								}
							}
						}
					}
					JOINT RightShoulder
					{
						OFFSET 19.746096 -1.480394 -6.000075
						CHANNELS 3 Zrotation Yrotation Xrotation
						JOINT RightArm
						{
							OFFSET 11.284135 -0.000006 -0.000006
							CHANNELS 3 Zrotation Yrotation Xrotation
							JOINT RightForeArm
							{
								OFFSET 33.000095 0.000018 0.000006
								CHANNELS 3 Zrotation Yrotation Xrotation
								JOINT RightHand
								{
									OFFSET 25.199783 0.000116 0.000436
									CHANNELS 3 Zrotation Yrotation Xrotation
									End Site
									{
										OFFSET 0.000000 0.000000 0.000000
									}
								}
							}
						}
					}
				}
			}
		}
	}
}
MOTION
Frames: 6
Frame Time: 0.033333
-94.410812 0.000000 525.538463 0.000000 52.520535 0.000000 -14.179175 98.672157 -8.349448 76.160562 -14.602865 176.462333 139.431892 3.785907 157.754612 -67.671807 3.887281 -1.315976 75.443804 -4.442758 -18.265377 21.454555 0.003094 -0.000001 176.545746 3.496788 -179.912988 -33.258448 4.974395 16.235220 47.897945 2.535741 27.473037 21.454568 -0.003108 -0.000018 13.012692 -0.281555 0.784217 16.008343 -0.669058 1.521852 15.690341 -0.659714 1.525867 -24.898814 -6.957256 0.863644 -14.155749 -4.190534 -1.225334 134.995957 -76.712874 44.383030 -18.637037 52.273558 8.797004 -83.056958 -7.216880 2.504187 5.922442 -9.863780 26.139361 110.223516 72.580240 -69.761831 -41.856414 -48.227238 9.282679 -76.502838 7.275850 -2.265780 6.552178 4.613332 -33.006203 
-89.571759 0.000000 526.217006 0.000000 52.170802 0.000000 -12.459329 99.209373 -5.765344 77.241189 -11.319204 179.897768 138.919614 6.448504 154.340378 -61.615014 2.410126 2.907081 76.954812 -8.654615 -23.349570 21.454553 0.003090 0.000001 -179.098884 -1.852597 179.428414 -35.472584 6.297444 14.285863 48.775993 4.175913 28.237645 21.454562 -0.003109 -0.000017 12.737617 -0.135340 1.193009 15.458093 -0.429079 2.357128 15.140272 -0.414700 2.359681 -27.032740 -7.727467 0.358052 -11.834600 -3.563699 -2.517262 137.376018 -76.954546 41.955059 -11.687444 53.191461 11.795995 -86.111999 -4.984088 2.482049 5.724634 -8.845384 26.365917 111.761088 72.171576 -68.257844 -41.742223 -49.820199 8.191953 -76.626629 7.228034 -2.266151 5.614454 5.909409 -31.591848 
-84.596721 0.000000 526.777785 0.000000 51.825873 0.000000 -10.948274 98.746071 -3.571688 78.562293 -8.669927 -178.073731 139.632289 9.376693 152.389689 -53.577681 1.074930 6.187299 75.976647 -11.959155 -25.692361 21.454553 0.003094 0.000002 -175.958104 -5.644114 -178.901724 -40.917809 6.182207 14.166768 50.809425 4.081703 29.032289 21.454548 -0.003108 -0.000017 12.480705 -0.163182 1.610251 14.941281 -0.533242 3.185811 14.623712 -0.513857 3.188977 -27.968554 -8.133703 -0.040294 -10.766445 -3.137653 -3.328863 141.805095 -77.129016 37.456037 -5.716727 53.836507 14.196519 -88.281766 -3.206042 2.453446 5.200458 -8.734339 26.011768 112.391480 71.877735 -67.652853 -42.703289 -51.474085 8.320758 -76.940421 7.067626 -2.268379 5.118530 6.879697 -30.354491 
-79.494672 0.000000 527.218259 0.000000 51.487228 0.000000 -9.624318 97.820518 -1.804279 80.002524 -6.002061 -177.569690 141.498215 11.545808 153.339168 -45.858556 0.432166 5.390435 74.550839 -11.464011 -25.000844 21.454553 0.003087 0.000003 -174.736689 -7.455512 -176.078042 -48.760994 4.900052 12.519923 49.612086 4.883779 27.387686 21.454553 -0.003108 -0.000018 12.275083 -0.196193 2.072454 14.525869 -0.651393 4.103737 14.208627 -0.626486 4.107599 -28.762309 -8.161209 -0.022599 -10.126847 -2.656854 -3.542399 148.285032 -77.000821 30.891098 -1.093954 54.742610 15.498147 -89.902399 -2.114601 2.448846 4.805917 -8.840608 25.131823 112.534470 71.408480 -67.554519 -43.421111 -52.975644 8.833892 -78.075168 6.635418 -2.286874 4.693539 7.452694 -29.931033 
-74.274582 0.000000 527.535887 0.000000 51.156324 0.000000 -8.564210 96.336067 -0.491875 81.804671 -3.220742 -178.362553 144.220920 12.268401 156.836265 -41.162839 1.130112 2.254989 70.853719 -8.664793 -21.098243 21.454550 0.003092 -0.000001 -174.269176 -6.625304 -174.133296 -56.944759 4.211393 11.095043 50.507476 5.137976 26.081619 21.454558 -0.003109 -0.000019 12.162835 -0.178128 2.507137 14.298635 -0.665163 4.972867 13.981820 -0.635040 4.976794 -29.523346 -7.684169 0.428486 -9.607619 -2.101410 -3.093928 154.760011 -76.561196 24.335933 2.505330 56.220725 16.086106 -91.534172 -1.716498 2.493364 4.556974 -8.985694 24.502692 112.438123 70.743882 -67.715930 -43.230723 -54.187207 8.672943 -80.098380 5.933101 -2.325207 3.904647 8.174406 -30.188343 
-68.945424 0.000000 527.728126 0.000000 50.834597 0.000000 -7.684030 94.219078 0.371356 83.965355 -0.550087 179.786892 148.496427 10.957900 160.598252 -39.543698 2.111877 4.197760 64.260243 -8.122831 -12.606712 21.454553 0.003093 0.000001 -175.303977 -3.801305 -172.534321 -65.761068 3.572266 12.819206 54.215180 2.063105 24.451258 21.454548 -0.003106 -0.000019 12.058200 -0.157906 2.847319 14.087449 -0.661828 5.654057 13.771032 -0.627590 5.657943 -28.995977 -6.307942 1.011747 -9.621252 -1.720766 -1.894110 160.327981 -76.211381 18.684119 5.644900 58.195425 16.517836 -93.747953 -1.194701 2.555275 4.186870 -9.979827 24.568571 112.561197 70.107247 -67.653973 -42.092875 -55.217298 7.052044 -82.513726 4.995976 -2.365006 2.870927 8.892546 -30.060971 
